<?xml version="1.0" encoding="UTF-8" standalone="no"?>
<!DOCTYPE svg PUBLIC "-//W3C//DTD SVG 1.1//EN"
 "http://www.w3.org/Graphics/SVG/1.1/DTD/svg11.dtd">
<!-- Generated by graphviz version 2.40.1 (20161225.0304)
 -->
<!-- Title: snakemake_dag Pages: 1 -->
<svg width="255pt" height="476pt"
 viewBox="0.00 0.00 254.50 476.00" xmlns="http://www.w3.org/2000/svg" xmlns:xlink="http://www.w3.org/1999/xlink">
<g id="graph0" class="graph" transform="scale(1 1) rotate(0) translate(4 472)">
<title>snakemake_dag</title>
<polygon fill="#ffffff" stroke="transparent" points="-4,4 -4,-472 250.5,-472 250.5,4 -4,4"/>
<!-- 0 -->
<g id="node1" class="node">
<title>0</title>
<path fill="none" stroke="#70d856" stroke-width="2" d="M42,-252C42,-252 12,-252 12,-252 6,-252 0,-246 0,-240 0,-240 0,-228 0,-228 0,-222 6,-216 12,-216 12,-216 42,-216 42,-216 48,-216 54,-222 54,-228 54,-228 54,-240 54,-240 54,-246 48,-252 42,-252"/>
<text text-anchor="middle" x="27" y="-231.5" font-family="sans" font-size="10.00" fill="#000000">all</text>
</g>
<!-- 1 -->
<g id="node2" class="node">
<title>1</title>
<path fill="none" stroke="#d88d56" stroke-width="2" d="M150,-324C150,-324 88,-324 88,-324 82,-324 76,-318 76,-312 76,-312 76,-300 76,-300 76,-294 82,-288 88,-288 88,-288 150,-288 150,-288 156,-288 162,-294 162,-300 162,-300 162,-312 162,-312 162,-318 156,-324 150,-324"/>
<text text-anchor="middle" x="119" y="-303.5" font-family="sans" font-size="10.00" fill="#000000">samtools_sort</text>
</g>
<!-- 1&#45;&gt;0 -->
<g id="edge1" class="edge">
<title>1&#45;&gt;0</title>
<path fill="none" stroke="#c0c0c0" stroke-width="2" d="M95.7845,-287.8314C84.453,-278.9632 70.6536,-268.1637 58.3973,-258.5718"/>
<polygon fill="#c0c0c0" stroke="#c0c0c0" stroke-width="2" points="60.2402,-255.5697 50.2081,-252.1628 55.926,-261.0822 60.2402,-255.5697"/>
</g>
<!-- 4 -->
<g id="node5" class="node">
<title>4</title>
<path fill="none" stroke="#d85656" stroke-width="2" d="M192,-180C192,-180 82,-180 82,-180 76,-180 70,-174 70,-168 70,-168 70,-156 70,-156 70,-150 76,-144 82,-144 82,-144 192,-144 192,-144 198,-144 204,-150 204,-156 204,-156 204,-168 204,-168 204,-174 198,-180 192,-180"/>
<text text-anchor="middle" x="137" y="-159.5" font-family="sans" font-size="10.00" fill="#000000">samtools_extract_reads</text>
</g>
<!-- 1&#45;&gt;4 -->
<g id="edge7" class="edge">
<title>1&#45;&gt;4</title>
<path fill="none" stroke="#c0c0c0" stroke-width="2" d="M110.1878,-287.8177C102.4902,-269.4571 93.6119,-240.4012 101,-216 103.9564,-206.2355 109.3252,-196.6229 115.03,-188.2762"/>
<polygon fill="#c0c0c0" stroke="#c0c0c0" stroke-width="2" points="117.9414,-190.2239 121.0095,-180.0831 112.2871,-186.0973 117.9414,-190.2239"/>
</g>
<!-- 7 -->
<g id="node8" class="node">
<title>7</title>
<path fill="none" stroke="#56c9d8" stroke-width="2" d="M192,-252C192,-252 122,-252 122,-252 116,-252 110,-246 110,-240 110,-240 110,-228 110,-228 110,-222 116,-216 122,-216 122,-216 192,-216 192,-216 198,-216 204,-222 204,-228 204,-228 204,-240 204,-240 204,-246 198,-252 192,-252"/>
<text text-anchor="middle" x="157" y="-231.5" font-family="sans" font-size="10.00" fill="#000000">samtools_index</text>
</g>
<!-- 1&#45;&gt;7 -->
<g id="edge9" class="edge">
<title>1&#45;&gt;7</title>
<path fill="none" stroke="#c0c0c0" stroke-width="2" d="M128.589,-287.8314C132.8317,-279.7925 137.9121,-270.1666 142.596,-261.2918"/>
<polygon fill="#c0c0c0" stroke="#c0c0c0" stroke-width="2" points="145.7096,-262.8908 147.2819,-252.4133 139.5189,-259.6235 145.7096,-262.8908"/>
</g>
<!-- 2 -->
<g id="node3" class="node">
<title>2</title>
<path fill="none" stroke="#56d8a9" stroke-width="2" d="M234.5,-36C234.5,-36 133.5,-36 133.5,-36 127.5,-36 121.5,-30 121.5,-24 121.5,-24 121.5,-12 121.5,-12 121.5,-6 127.5,0 133.5,0 133.5,0 234.5,0 234.5,0 240.5,0 246.5,-6 246.5,-12 246.5,-12 246.5,-24 246.5,-24 246.5,-30 240.5,-36 234.5,-36"/>
<text text-anchor="middle" x="184" y="-15.5" font-family="sans" font-size="10.00" fill="#000000">samtools_merge_bam</text>
</g>
<!-- 2&#45;&gt;1 -->
<g id="edge2" class="edge">
<title>2&#45;&gt;1</title>
<path fill="none" stroke="#c0c0c0" stroke-width="2" d="M196.6122,-36.0585C202.8767,-46.134 209.7812,-59.2033 213,-72 232.5146,-149.5834 253.075,-182.7613 213,-252 203.779,-267.9313 187.8834,-279.5715 171.7591,-287.874"/>
<polygon fill="#c0c0c0" stroke="#c0c0c0" stroke-width="2" points="169.8117,-284.9247 162.2876,-292.3839 172.8211,-291.2448 169.8117,-284.9247"/>
</g>
<!-- 3 -->
<g id="node4" class="node">
<title>3</title>
<path fill="none" stroke="#56d873" stroke-width="2" d="M191.5,-108C191.5,-108 82.5,-108 82.5,-108 76.5,-108 70.5,-102 70.5,-96 70.5,-96 70.5,-84 70.5,-84 70.5,-78 76.5,-72 82.5,-72 82.5,-72 191.5,-72 191.5,-72 197.5,-72 203.5,-78 203.5,-84 203.5,-84 203.5,-96 203.5,-96 203.5,-102 197.5,-108 191.5,-108"/>
<text text-anchor="middle" x="137" y="-87.5" font-family="sans" font-size="10.00" fill="#000000">picard_mark_duplicates</text>
</g>
<!-- 3&#45;&gt;2 -->
<g id="edge4" class="edge">
<title>3&#45;&gt;2</title>
<path fill="none" stroke="#c0c0c0" stroke-width="2" d="M148.8601,-71.8314C154.1629,-63.7079 160.5237,-53.9637 166.3673,-45.0118"/>
<polygon fill="#c0c0c0" stroke="#c0c0c0" stroke-width="2" points="169.4448,-46.7003 171.9802,-36.4133 163.5831,-42.8739 169.4448,-46.7003"/>
</g>
<!-- 4&#45;&gt;3 -->
<g id="edge5" class="edge">
<title>4&#45;&gt;3</title>
<path fill="none" stroke="#c0c0c0" stroke-width="2" d="M137,-143.8314C137,-136.131 137,-126.9743 137,-118.4166"/>
<polygon fill="#c0c0c0" stroke="#c0c0c0" stroke-width="2" points="140.5001,-118.4132 137,-108.4133 133.5001,-118.4133 140.5001,-118.4132"/>
</g>
<!-- 5 -->
<g id="node6" class="node">
<title>5</title>
<path fill="none" stroke="#d8cb56" stroke-width="2" d="M159,-396C159,-396 79,-396 79,-396 73,-396 67,-390 67,-384 67,-384 67,-372 67,-372 67,-366 73,-360 79,-360 79,-360 159,-360 159,-360 165,-360 171,-366 171,-372 171,-372 171,-384 171,-384 171,-390 165,-396 159,-396"/>
<text text-anchor="middle" x="119" y="-375.5" font-family="sans" font-size="10.00" fill="#000000">bwa_mem_merge</text>
</g>
<!-- 5&#45;&gt;1 -->
<g id="edge3" class="edge">
<title>5&#45;&gt;1</title>
<path fill="none" stroke="#c0c0c0" stroke-width="2" d="M119,-359.8314C119,-352.131 119,-342.9743 119,-334.4166"/>
<polygon fill="#c0c0c0" stroke="#c0c0c0" stroke-width="2" points="122.5001,-334.4132 119,-324.4133 115.5001,-334.4133 122.5001,-334.4132"/>
</g>
<!-- 6 -->
<g id="node7" class="node">
<title>6</title>
<path fill="none" stroke="#5692d8" stroke-width="2" d="M141,-468C141,-468 97,-468 97,-468 91,-468 85,-462 85,-456 85,-456 85,-444 85,-444 85,-438 91,-432 97,-432 97,-432 141,-432 141,-432 147,-432 153,-438 153,-444 153,-444 153,-456 153,-456 153,-462 147,-468 141,-468"/>
<text text-anchor="middle" x="119" y="-447.5" font-family="sans" font-size="10.00" fill="#000000">bwa_mem</text>
</g>
<!-- 6&#45;&gt;5 -->
<g id="edge8" class="edge">
<title>6&#45;&gt;5</title>
<path fill="none" stroke="#c0c0c0" stroke-width="2" d="M119,-431.8314C119,-424.131 119,-414.9743 119,-406.4166"/>
<polygon fill="#c0c0c0" stroke="#c0c0c0" stroke-width="2" points="122.5001,-406.4132 119,-396.4133 115.5001,-406.4133 122.5001,-406.4132"/>
</g>
<!-- 7&#45;&gt;4 -->
<g id="edge6" class="edge">
<title>7&#45;&gt;4</title>
<path fill="none" stroke="#c0c0c0" stroke-width="2" d="M151.9532,-215.8314C149.7906,-208.0463 147.2147,-198.7729 144.8152,-190.1347"/>
<polygon fill="#c0c0c0" stroke="#c0c0c0" stroke-width="2" points="148.1636,-189.1117 142.1148,-180.4133 141.419,-190.9852 148.1636,-189.1117"/>
</g>
</g>
</svg>
