<?xml version="1.0" encoding="UTF-8" standalone="no"?>
<!DOCTYPE svg PUBLIC "-//W3C//DTD SVG 1.1//EN"
 "http://www.w3.org/Graphics/SVG/1.1/DTD/svg11.dtd">
<!-- Generated by graphviz version 14.1.2 (0)
 -->
<!-- Title: snakemake_dag Pages: 1 -->
<svg width="298pt" height="260pt"
 viewBox="0.00 0.00 298.00 260.00" xmlns="http://www.w3.org/2000/svg" xmlns:xlink="http://www.w3.org/1999/xlink">
<g id="graph0" class="graph" transform="scale(1 1) rotate(0) translate(4 256)">
<title>snakemake_dag</title>
<polygon fill="white" stroke="none" points="-4,4 -4,-256 293.5,-256 293.5,4 -4,4"/>
<!-- 0 -->
<g id="node1" class="node">
<title>0</title>
<path fill="none" stroke="#56c1d8" stroke-width="2" d="M163.12,-36C163.12,-36 133.12,-36 133.12,-36 127.12,-36 121.12,-30 121.12,-24 121.12,-24 121.12,-12 121.12,-12 121.12,-6 127.12,0 133.12,0 133.12,0 163.12,0 163.12,0 169.12,0 175.12,-6 175.12,-12 175.12,-12 175.12,-24 175.12,-24 175.12,-30 169.12,-36 163.12,-36"/>
<text xml:space="preserve" text-anchor="middle" x="148.12" y="-14.12" font-family="sans" font-size="10.00">all</text>
</g>
<!-- 1 -->
<g id="node2" class="node">
<title>1</title>
<path fill="none" stroke="#d8c356" stroke-width="2" d="M78.25,-108C78.25,-108 12,-108 12,-108 6,-108 0,-102 0,-96 0,-96 0,-84 0,-84 0,-78 6,-72 12,-72 12,-72 78.25,-72 78.25,-72 84.25,-72 90.25,-78 90.25,-84 90.25,-84 90.25,-96 90.25,-96 90.25,-102 84.25,-108 78.25,-108"/>
<text xml:space="preserve" text-anchor="middle" x="45.12" y="-86.12" font-family="sans" font-size="10.00">minimap2_merge</text>
</g>
<!-- 1&#45;&gt;0 -->
<g id="edge2" class="edge">
<title>1&#45;&gt;0</title>
<path fill="none" stroke="grey" stroke-width="2" d="M71.38,-71.15C83.49,-62.93 98.07,-53.02 111.25,-44.06"/>
<polygon fill="grey" stroke="grey" stroke-width="2" points="113.11,-47.03 119.41,-38.51 109.17,-41.24 113.11,-47.03"/>
</g>
<!-- 2 -->
<g id="node3" class="node">
<title>2</title>
<path fill="none" stroke="#56d873" stroke-width="2" d="M74.88,-180C74.88,-180 15.38,-180 15.38,-180 9.38,-180 3.38,-174 3.38,-168 3.38,-168 3.38,-156 3.38,-156 3.38,-150 9.38,-144 15.38,-144 15.38,-144 74.88,-144 74.88,-144 80.88,-144 86.88,-150 86.88,-156 86.88,-156 86.88,-168 86.88,-168 86.88,-174 80.88,-180 74.88,-180"/>
<text xml:space="preserve" text-anchor="middle" x="45.12" y="-158.12" font-family="sans" font-size="10.00">minimap2_align</text>
</g>
<!-- 2&#45;&gt;1 -->
<g id="edge4" class="edge">
<title>2&#45;&gt;1</title>
<path fill="none" stroke="grey" stroke-width="2" d="M45.12,-143.34C45.12,-136.75 45.12,-129.08 45.12,-121.67"/>
<polygon fill="grey" stroke="grey" stroke-width="2" points="48.63,-121.93 45.13,-111.93 41.63,-121.93 48.63,-121.93"/>
</g>
<!-- 3 -->
<g id="node4" class="node">
<title>3</title>
<path fill="none" stroke="#d85656" stroke-width="2" d="M76.38,-252C76.38,-252 13.87,-252 13.87,-252 7.87,-252 1.88,-246 1.88,-240 1.88,-240 1.88,-228 1.88,-228 1.88,-222 7.87,-216 13.87,-216 13.87,-216 76.38,-216 76.38,-216 82.38,-216 88.38,-222 88.38,-228 88.38,-228 88.38,-240 88.38,-240 88.38,-246 82.38,-252 76.38,-252"/>
<text xml:space="preserve" text-anchor="middle" x="45.12" y="-230.12" font-family="sans" font-size="10.00">minimap2_index</text>
</g>
<!-- 3&#45;&gt;2 -->
<g id="edge5" class="edge">
<title>3&#45;&gt;2</title>
<path fill="none" stroke="grey" stroke-width="2" d="M45.12,-215.34C45.12,-208.75 45.12,-201.08 45.12,-193.67"/>
<polygon fill="grey" stroke="grey" stroke-width="2" points="48.63,-193.93 45.13,-183.93 41.63,-193.93 48.63,-193.93"/>
</g>
<!-- 4 -->
<g id="node5" class="node">
<title>4</title>
<path fill="none" stroke="#56a2d8" stroke-width="2" d="M176.38,-108C176.38,-108 119.88,-108 119.88,-108 113.88,-108 107.88,-102 107.88,-96 107.88,-96 107.88,-84 107.88,-84 107.88,-78 113.88,-72 119.88,-72 119.88,-72 176.38,-72 176.38,-72 182.38,-72 188.38,-78 188.38,-84 188.38,-84 188.38,-96 188.38,-96 188.38,-102 182.38,-108 176.38,-108"/>
<text xml:space="preserve" text-anchor="middle" x="148.12" y="-86.12" font-family="sans" font-size="10.00">pbmm2_merge</text>
</g>
<!-- 4&#45;&gt;0 -->
<g id="edge1" class="edge">
<title>4&#45;&gt;0</title>
<path fill="none" stroke="grey" stroke-width="2" d="M148.12,-71.34C148.12,-64.75 148.12,-57.08 148.12,-49.67"/>
<polygon fill="grey" stroke="grey" stroke-width="2" points="151.63,-49.93 148.13,-39.93 144.63,-49.93 151.63,-49.93"/>
</g>
<!-- 5 -->
<g id="node6" class="node">
<title>5</title>
<path fill="none" stroke="#d89c56" stroke-width="2" d="M173,-180C173,-180 123.25,-180 123.25,-180 117.25,-180 111.25,-174 111.25,-168 111.25,-168 111.25,-156 111.25,-156 111.25,-150 117.25,-144 123.25,-144 123.25,-144 173,-144 173,-144 179,-144 185,-150 185,-156 185,-156 185,-168 185,-168 185,-174 179,-180 173,-180"/>
<text xml:space="preserve" text-anchor="middle" x="148.12" y="-158.12" font-family="sans" font-size="10.00">pbmm2_align</text>
</g>
<!-- 5&#45;&gt;4 -->
<g id="edge6" class="edge">
<title>5&#45;&gt;4</title>
<path fill="none" stroke="grey" stroke-width="2" d="M148.12,-143.34C148.12,-136.75 148.12,-129.08 148.12,-121.67"/>
<polygon fill="grey" stroke="grey" stroke-width="2" points="151.63,-121.93 148.13,-111.93 144.63,-121.93 151.63,-121.93"/>
</g>
<!-- 6 -->
<g id="node7" class="node">
<title>6</title>
<path fill="none" stroke="#56d85b" stroke-width="2" d="M174.5,-252C174.5,-252 121.75,-252 121.75,-252 115.75,-252 109.75,-246 109.75,-240 109.75,-240 109.75,-228 109.75,-228 109.75,-222 115.75,-216 121.75,-216 121.75,-216 174.5,-216 174.5,-216 180.5,-216 186.5,-222 186.5,-228 186.5,-228 186.5,-240 186.5,-240 186.5,-246 180.5,-252 174.5,-252"/>
<text xml:space="preserve" text-anchor="middle" x="148.12" y="-230.12" font-family="sans" font-size="10.00">pbmm2_index</text>
</g>
<!-- 6&#45;&gt;5 -->
<g id="edge7" class="edge">
<title>6&#45;&gt;5</title>
<path fill="none" stroke="grey" stroke-width="2" d="M148.12,-215.34C148.12,-208.75 148.12,-201.08 148.12,-193.67"/>
<polygon fill="grey" stroke="grey" stroke-width="2" points="151.63,-193.93 148.13,-183.93 144.63,-193.93 151.63,-193.93"/>
</g>
<!-- 7 -->
<g id="node8" class="node">
<title>7</title>
<path fill="none" stroke="#a7d856" stroke-width="2" d="M277.5,-108C277.5,-108 218.75,-108 218.75,-108 212.75,-108 206.75,-102 206.75,-96 206.75,-96 206.75,-84 206.75,-84 206.75,-78 212.75,-72 218.75,-72 218.75,-72 277.5,-72 277.5,-72 283.5,-72 289.5,-78 289.5,-84 289.5,-84 289.5,-96 289.5,-96 289.5,-102 283.5,-108 277.5,-108"/>
<text xml:space="preserve" text-anchor="middle" x="248.12" y="-86.12" font-family="sans" font-size="10.00">vacmap_merge</text>
</g>
<!-- 7&#45;&gt;0 -->
<g id="edge3" class="edge">
<title>7&#45;&gt;0</title>
<path fill="none" stroke="grey" stroke-width="2" d="M222.63,-71.15C210.88,-62.93 196.72,-53.02 183.92,-44.06"/>
<polygon fill="grey" stroke="grey" stroke-width="2" points="186.25,-41.42 176.05,-38.55 182.24,-47.15 186.25,-41.42"/>
</g>
<!-- 8 -->
<g id="node9" class="node">
<title>8</title>
<path fill="none" stroke="#56d8a9" stroke-width="2" d="M274.12,-180C274.12,-180 222.12,-180 222.12,-180 216.12,-180 210.12,-174 210.12,-168 210.12,-168 210.12,-156 210.12,-156 210.12,-150 216.12,-144 222.12,-144 222.12,-144 274.12,-144 274.12,-144 280.12,-144 286.12,-150 286.12,-156 286.12,-156 286.12,-168 286.12,-168 286.12,-174 280.12,-180 274.12,-180"/>
<text xml:space="preserve" text-anchor="middle" x="248.12" y="-158.12" font-family="sans" font-size="10.00">vacmap_align</text>
</g>
<!-- 8&#45;&gt;7 -->
<g id="edge8" class="edge">
<title>8&#45;&gt;7</title>
<path fill="none" stroke="grey" stroke-width="2" d="M248.12,-143.34C248.12,-136.75 248.12,-129.08 248.12,-121.67"/>
<polygon fill="grey" stroke="grey" stroke-width="2" points="251.63,-121.93 248.13,-111.93 244.63,-121.93 251.63,-121.93"/>
</g>
</g>
</svg>
