<?xml version="1.0" encoding="UTF-8" standalone="no"?>
<!DOCTYPE svg PUBLIC "-//W3C//DTD SVG 1.1//EN"
 "http://www.w3.org/Graphics/SVG/1.1/DTD/svg11.dtd">
<!-- Generated by graphviz version 11.0.0 (20240428.1522)
 -->
<!-- Title: snakemake_dag Pages: 1 -->
<svg width="454pt" height="288pt"
 viewBox="0.00 0.00 454.00 288.25" xmlns="http://www.w3.org/2000/svg" xmlns:xlink="http://www.w3.org/1999/xlink">
<g id="graph0" class="graph" transform="scale(1 1) rotate(0) translate(4 284.25)">
<title>snakemake_dag</title>
<polygon fill="white" stroke="none" points="-4,4 -4,-284.25 450,-284.25 450,4 -4,4"/>
<!-- 0 -->
<g id="node1" class="node">
<title>0</title>
<path fill="none" stroke="#9fd856" stroke-width="2" d="M237,-36C237,-36 207,-36 207,-36 201,-36 195,-30 195,-24 195,-24 195,-12 195,-12 195,-6 201,0 207,0 207,0 237,0 237,0 243,0 249,-6 249,-12 249,-12 249,-24 249,-24 249,-30 243,-36 237,-36"/>
<text text-anchor="middle" x="222" y="-14.12" font-family="sans" font-size="10.00">all</text>
</g>
<!-- 1 -->
<g id="node2" class="node">
<title>1</title>
<path fill="none" stroke="#b6d856" stroke-width="2" d="M204.12,-108C204.12,-108 137.88,-108 137.88,-108 131.88,-108 125.88,-102 125.88,-96 125.88,-96 125.88,-84 125.88,-84 125.88,-78 131.88,-72 137.88,-72 137.88,-72 204.12,-72 204.12,-72 210.12,-72 216.12,-78 216.12,-84 216.12,-84 216.12,-96 216.12,-96 216.12,-102 210.12,-108 204.12,-108"/>
<text text-anchor="middle" x="171" y="-86.12" font-family="sans" font-size="10.00">minimap2_merge</text>
</g>
<!-- 1&#45;&gt;0 -->
<g id="edge1" class="edge">
<title>1&#45;&gt;0</title>
<path fill="none" stroke="grey" stroke-width="2" d="M183.87,-71.34C189.2,-64.01 195.53,-55.34 201.47,-47.18"/>
<polygon fill="grey" stroke="grey" stroke-width="2" points="204.11,-49.49 207.17,-39.35 198.46,-45.37 204.11,-49.49"/>
</g>
<!-- 2 -->
<g id="node3" class="node">
<title>2</title>
<path fill="none" stroke="#88d856" stroke-width="2" d="M202,-208.25C202,-208.25 12,-208.25 12,-208.25 6,-208.25 0,-202.25 0,-196.25 0,-196.25 0,-156 0,-156 0,-150 6,-144 12,-144 12,-144 202,-144 202,-144 208,-144 214,-150 214,-156 214,-156 214,-196.25 214,-196.25 214,-202.25 208,-208.25 202,-208.25"/>
<text text-anchor="middle" x="107" y="-194.75" font-family="sans" font-size="10.00">minimap2_align</text>
<text text-anchor="middle" x="107" y="-183.5" font-family="sans" font-size="10.00">barcode: NNNN</text>
<text text-anchor="middle" x="107" y="-172.25" font-family="sans" font-size="10.00">processing_unit: m84010_220919_235306_s2</text>
<text text-anchor="middle" x="107" y="-161" font-family="sans" font-size="10.00">sample: HG003</text>
<text text-anchor="middle" x="107" y="-149.75" font-family="sans" font-size="10.00">type: N</text>
</g>
<!-- 2&#45;&gt;1 -->
<g id="edge3" class="edge">
<title>2&#45;&gt;1</title>
<path fill="none" stroke="grey" stroke-width="2" d="M131.2,-143.32C137.33,-135.26 143.87,-126.66 149.84,-118.82"/>
<polygon fill="grey" stroke="grey" stroke-width="2" points="152.43,-121.19 155.7,-111.11 146.86,-116.95 152.43,-121.19"/>
</g>
<!-- 3 -->
<g id="node4" class="node">
<title>3</title>
<path fill="none" stroke="#d89556" stroke-width="2" d="M138.25,-280.25C138.25,-280.25 75.75,-280.25 75.75,-280.25 69.75,-280.25 63.75,-274.25 63.75,-268.25 63.75,-268.25 63.75,-256.25 63.75,-256.25 63.75,-250.25 69.75,-244.25 75.75,-244.25 75.75,-244.25 138.25,-244.25 138.25,-244.25 144.25,-244.25 150.25,-250.25 150.25,-256.25 150.25,-256.25 150.25,-268.25 150.25,-268.25 150.25,-274.25 144.25,-280.25 138.25,-280.25"/>
<text text-anchor="middle" x="107" y="-258.38" font-family="sans" font-size="10.00">minimap2_index</text>
</g>
<!-- 3&#45;&gt;2 -->
<g id="edge4" class="edge">
<title>3&#45;&gt;2</title>
<path fill="none" stroke="grey" stroke-width="2" d="M107,-243.41C107,-237.12 107,-229.74 107,-222.23"/>
<polygon fill="grey" stroke="grey" stroke-width="2" points="110.5,-222.23 107,-212.23 103.5,-222.23 110.5,-222.23"/>
</g>
<!-- 4 -->
<g id="node5" class="node">
<title>4</title>
<path fill="none" stroke="#d8ac56" stroke-width="2" d="M334.25,-108C334.25,-108 277.75,-108 277.75,-108 271.75,-108 265.75,-102 265.75,-96 265.75,-96 265.75,-84 265.75,-84 265.75,-78 271.75,-72 277.75,-72 277.75,-72 334.25,-72 334.25,-72 340.25,-72 346.25,-78 346.25,-84 346.25,-84 346.25,-96 346.25,-96 346.25,-102 340.25,-108 334.25,-108"/>
<text text-anchor="middle" x="306" y="-86.12" font-family="sans" font-size="10.00">pbmm2_merge</text>
</g>
<!-- 4&#45;&gt;0 -->
<g id="edge2" class="edge">
<title>4&#45;&gt;0</title>
<path fill="none" stroke="grey" stroke-width="2" d="M284.8,-71.34C275.23,-63.36 263.72,-53.77 253.19,-44.99"/>
<polygon fill="grey" stroke="grey" stroke-width="2" points="255.73,-42.55 245.81,-38.84 251.25,-47.93 255.73,-42.55"/>
</g>
<!-- 5 -->
<g id="node6" class="node">
<title>5</title>
<path fill="none" stroke="#56d863" stroke-width="2" d="M434,-208.25C434,-208.25 244,-208.25 244,-208.25 238,-208.25 232,-202.25 232,-196.25 232,-196.25 232,-156 232,-156 232,-150 238,-144 244,-144 244,-144 434,-144 434,-144 440,-144 446,-150 446,-156 446,-156 446,-196.25 446,-196.25 446,-202.25 440,-208.25 434,-208.25"/>
<text text-anchor="middle" x="339" y="-194.75" font-family="sans" font-size="10.00">pbmm2_align</text>
<text text-anchor="middle" x="339" y="-183.5" font-family="sans" font-size="10.00">barcode: NNNN</text>
<text text-anchor="middle" x="339" y="-172.25" font-family="sans" font-size="10.00">processing_unit: m84010_220919_235306_s2</text>
<text text-anchor="middle" x="339" y="-161" font-family="sans" font-size="10.00">sample: HG003</text>
<text text-anchor="middle" x="339" y="-149.75" font-family="sans" font-size="10.00">type: N</text>
</g>
<!-- 5&#45;&gt;4 -->
<g id="edge5" class="edge">
<title>5&#45;&gt;4</title>
<path fill="none" stroke="grey" stroke-width="2" d="M326.52,-143.32C323.61,-135.9 320.52,-128.03 317.65,-120.7"/>
<polygon fill="grey" stroke="grey" stroke-width="2" points="320.96,-119.55 314.05,-111.52 314.44,-122.11 320.96,-119.55"/>
</g>
<!-- 6 -->
<g id="node7" class="node">
<title>6</title>
<path fill="none" stroke="#78d856" stroke-width="2" d="M365.38,-280.25C365.38,-280.25 312.62,-280.25 312.62,-280.25 306.62,-280.25 300.62,-274.25 300.62,-268.25 300.62,-268.25 300.62,-256.25 300.62,-256.25 300.62,-250.25 306.62,-244.25 312.62,-244.25 312.62,-244.25 365.38,-244.25 365.38,-244.25 371.38,-244.25 377.38,-250.25 377.38,-256.25 377.38,-256.25 377.38,-268.25 377.38,-268.25 377.38,-274.25 371.38,-280.25 365.38,-280.25"/>
<text text-anchor="middle" x="339" y="-258.38" font-family="sans" font-size="10.00">pbmm2_index</text>
</g>
<!-- 6&#45;&gt;5 -->
<g id="edge6" class="edge">
<title>6&#45;&gt;5</title>
<path fill="none" stroke="grey" stroke-width="2" d="M339,-243.41C339,-237.12 339,-229.74 339,-222.23"/>
<polygon fill="grey" stroke="grey" stroke-width="2" points="342.5,-222.23 339,-212.23 335.5,-222.23 342.5,-222.23"/>
</g>
</g>
</svg>
