<?xml version="1.0" encoding="UTF-8" standalone="no"?>
<!DOCTYPE svg PUBLIC "-//W3C//DTD SVG 1.1//EN"
 "http://www.w3.org/Graphics/SVG/1.1/DTD/svg11.dtd">
<!-- Generated by graphviz version 8.0.1 (20230327.1645)
 -->
<!-- Title: snakemake_dag Pages: 1 -->
<svg width="433pt" height="836pt"
 viewBox="0.00 0.00 433.00 836.00" xmlns="http://www.w3.org/2000/svg" xmlns:xlink="http://www.w3.org/1999/xlink">
<g id="graph0" class="graph" transform="scale(1 1) rotate(0) translate(4 832)">
<title>snakemake_dag</title>
<polygon fill="white" stroke="none" points="-4,4 -4,-832 429,-832 429,4 -4,4"/>
<!-- 0 -->
<g id="node1" class="node">
<title>0</title>
<path fill="none" stroke="#80d856" stroke-width="2" d="M398.5,-252C398.5,-252 368.5,-252 368.5,-252 362.5,-252 356.5,-246 356.5,-240 356.5,-240 356.5,-228 356.5,-228 356.5,-222 362.5,-216 368.5,-216 368.5,-216 398.5,-216 398.5,-216 404.5,-216 410.5,-222 410.5,-228 410.5,-228 410.5,-240 410.5,-240 410.5,-246 404.5,-252 398.5,-252"/>
<text text-anchor="middle" x="383.5" y="-231.5" font-family="sans" font-size="10.00">all</text>
</g>
<!-- 1 -->
<g id="node2" class="node">
<title>1</title>
<path fill="none" stroke="#b6d856" stroke-width="2" d="M269.5,-324C269.5,-324 215.5,-324 215.5,-324 209.5,-324 203.5,-318 203.5,-312 203.5,-312 203.5,-300 203.5,-300 203.5,-294 209.5,-288 215.5,-288 215.5,-288 269.5,-288 269.5,-288 275.5,-288 281.5,-294 281.5,-300 281.5,-300 281.5,-312 281.5,-312 281.5,-318 275.5,-324 269.5,-324"/>
<text text-anchor="middle" x="242.5" y="-303.5" font-family="sans" font-size="10.00">samtools_sort</text>
</g>
<!-- 1&#45;&gt;0 -->
<g id="edge1" class="edge">
<title>1&#45;&gt;0</title>
<path fill="none" stroke="grey" stroke-width="2" d="M278.45,-287.15C298.5,-277.2 323.5,-264.78 344.09,-254.57"/>
<polygon fill="grey" stroke="grey" stroke-width="2" points="346.23,-257.42 353.63,-249.84 343.12,-251.15 346.23,-257.42"/>
</g>
<!-- 4 -->
<g id="node5" class="node">
<title>4</title>
<path fill="none" stroke="#56a9d8" stroke-width="2" d="M109,-180C109,-180 12,-180 12,-180 6,-180 0,-174 0,-168 0,-168 0,-156 0,-156 0,-150 6,-144 12,-144 12,-144 109,-144 109,-144 115,-144 121,-150 121,-156 121,-156 121,-168 121,-168 121,-174 115,-180 109,-180"/>
<text text-anchor="middle" x="60.5" y="-159.5" font-family="sans" font-size="10.00">samtools_extract_reads</text>
</g>
<!-- 1&#45;&gt;4 -->
<g id="edge9" class="edge">
<title>1&#45;&gt;4</title>
<path fill="none" stroke="grey" stroke-width="2" d="M202.75,-294.35C176.96,-285.97 143.77,-272.28 119.5,-252 100.04,-235.74 84.53,-211.43 74.3,-192.33"/>
<polygon fill="grey" stroke="grey" stroke-width="2" points="77.16,-190.27 69.49,-182.95 70.92,-193.45 77.16,-190.27"/>
</g>
<!-- 7 -->
<g id="node8" class="node">
<title>7</title>
<path fill="none" stroke="#d88d56" stroke-width="2" d="M202,-252C202,-252 141,-252 141,-252 135,-252 129,-246 129,-240 129,-240 129,-228 129,-228 129,-222 135,-216 141,-216 141,-216 202,-216 202,-216 208,-216 214,-222 214,-228 214,-228 214,-240 214,-240 214,-246 208,-252 202,-252"/>
<text text-anchor="middle" x="171.5" y="-231.5" font-family="sans" font-size="10.00">samtools_index</text>
</g>
<!-- 1&#45;&gt;7 -->
<g id="edge12" class="edge">
<title>1&#45;&gt;7</title>
<path fill="none" stroke="grey" stroke-width="2" d="M224.58,-287.34C216.74,-279.6 207.36,-270.36 198.69,-261.81"/>
<polygon fill="grey" stroke="grey" stroke-width="2" points="201.24,-259.43 191.66,-254.9 196.32,-264.41 201.24,-259.43"/>
</g>
<!-- 9 -->
<g id="node10" class="node">
<title>9</title>
<path fill="none" stroke="#56d863" stroke-width="2" d="M288,-180C288,-180 151,-180 151,-180 145,-180 139,-174 139,-168 139,-168 139,-156 139,-156 139,-150 145,-144 151,-144 151,-144 288,-144 288,-144 294,-144 300,-150 300,-156 300,-156 300,-168 300,-168 300,-174 294,-180 288,-180"/>
<text text-anchor="middle" x="219.5" y="-159.5" font-family="sans" font-size="10.00">samtools_extract_reads_non_chr</text>
</g>
<!-- 1&#45;&gt;9 -->
<g id="edge14" class="edge">
<title>1&#45;&gt;9</title>
<path fill="none" stroke="grey" stroke-width="2" d="M239.59,-287.02C235.79,-263.54 229.07,-222.11 224.46,-193.64"/>
<polygon fill="grey" stroke="grey" stroke-width="2" points="227.44,-192.15 222.39,-182.84 220.53,-193.27 227.44,-192.15"/>
</g>
<!-- 2 -->
<g id="node3" class="node">
<title>2</title>
<path fill="none" stroke="#d8c356" stroke-width="2" d="M264,-36C264,-36 175,-36 175,-36 169,-36 163,-30 163,-24 163,-24 163,-12 163,-12 163,-6 169,0 175,0 175,0 264,0 264,0 270,0 276,-6 276,-12 276,-12 276,-24 276,-24 276,-30 270,-36 264,-36"/>
<text text-anchor="middle" x="219.5" y="-15.5" font-family="sans" font-size="10.00">samtools_merge_bam</text>
</g>
<!-- 2&#45;&gt;1 -->
<g id="edge4" class="edge">
<title>2&#45;&gt;1</title>
<path fill="none" stroke="grey" stroke-width="2" d="M268.82,-36.96C284.27,-45.16 299.6,-56.58 308.5,-72 347.45,-139.43 295.48,-231.26 263.77,-276.88"/>
<polygon fill="grey" stroke="grey" stroke-width="2" points="260.38,-275.02 257.41,-285.19 266.07,-279.09 260.38,-275.02"/>
</g>
<!-- 3 -->
<g id="node4" class="node">
<title>3</title>
<path fill="none" stroke="#d87556" stroke-width="2" d="M109,-108C109,-108 14,-108 14,-108 8,-108 2,-102 2,-96 2,-96 2,-84 2,-84 2,-78 8,-72 14,-72 14,-72 109,-72 109,-72 115,-72 121,-78 121,-84 121,-84 121,-96 121,-96 121,-102 115,-108 109,-108"/>
<text text-anchor="middle" x="61.5" y="-87.5" font-family="sans" font-size="10.00">picard_mark_duplicates</text>
</g>
<!-- 3&#45;&gt;2 -->
<g id="edge7" class="edge">
<title>3&#45;&gt;2</title>
<path fill="none" stroke="grey" stroke-width="2" d="M101.78,-71.15C121.67,-62.34 145.9,-51.61 167.2,-42.17"/>
<polygon fill="grey" stroke="grey" stroke-width="2" points="169.3,-45.18 177.02,-37.93 166.46,-38.78 169.3,-45.18"/>
</g>
<!-- 4&#45;&gt;3 -->
<g id="edge8" class="edge">
<title>4&#45;&gt;3</title>
<path fill="none" stroke="grey" stroke-width="2" d="M60.75,-143.34C60.85,-136.75 60.96,-129.08 61.06,-121.67"/>
<polygon fill="grey" stroke="grey" stroke-width="2" points="64.6,-121.95 61.24,-111.9 57.6,-121.85 64.6,-121.95"/>
</g>
<!-- 5 -->
<g id="node6" class="node">
<title>5</title>
<path fill="none" stroke="#ced856" stroke-width="2" d="M223.5,-756C223.5,-756 153.5,-756 153.5,-756 147.5,-756 141.5,-750 141.5,-744 141.5,-744 141.5,-732 141.5,-732 141.5,-726 147.5,-720 153.5,-720 153.5,-720 223.5,-720 223.5,-720 229.5,-720 235.5,-726 235.5,-732 235.5,-732 235.5,-744 235.5,-744 235.5,-750 229.5,-756 223.5,-756"/>
<text text-anchor="middle" x="188.5" y="-735.5" font-family="sans" font-size="10.00">bwa_mem_merge</text>
</g>
<!-- 5&#45;&gt;1 -->
<g id="edge3" class="edge">
<title>5&#45;&gt;1</title>
<path fill="none" stroke="grey" stroke-width="2" d="M180.23,-719.05C168.78,-692.53 149.5,-641.02 149.5,-595 149.5,-595 149.5,-595 149.5,-449 149.5,-408.55 146.34,-393.84 168.5,-360 175.64,-349.09 185.87,-339.71 196.44,-332.01"/>
<polygon fill="grey" stroke="grey" stroke-width="2" points="198.7,-334.36 205.04,-325.86 194.79,-328.55 198.7,-334.36"/>
</g>
<!-- 14 -->
<g id="node15" class="node">
<title>14</title>
<path fill="none" stroke="#568ad8" stroke-width="2" d="M283,-684C283,-684 208,-684 208,-684 202,-684 196,-678 196,-672 196,-672 196,-660 196,-660 196,-654 202,-648 208,-648 208,-648 283,-648 283,-648 289,-648 295,-654 295,-660 295,-660 295,-672 295,-672 295,-678 289,-684 283,-684"/>
<text text-anchor="middle" x="245.5" y="-663.5" font-family="sans" font-size="10.00">samtools_sort_umi</text>
</g>
<!-- 5&#45;&gt;14 -->
<g id="edge20" class="edge">
<title>5&#45;&gt;14</title>
<path fill="none" stroke="grey" stroke-width="2" d="M202.88,-719.34C208.91,-711.93 216.07,-703.14 222.78,-694.9"/>
<polygon fill="grey" stroke="grey" stroke-width="2" points="226.32,-696.87 229.92,-686.9 220.89,-692.45 226.32,-696.87"/>
</g>
<!-- 6 -->
<g id="node7" class="node">
<title>6</title>
<path fill="none" stroke="#56d882" stroke-width="2" d="M207.5,-828C207.5,-828 169.5,-828 169.5,-828 163.5,-828 157.5,-822 157.5,-816 157.5,-816 157.5,-804 157.5,-804 157.5,-798 163.5,-792 169.5,-792 169.5,-792 207.5,-792 207.5,-792 213.5,-792 219.5,-798 219.5,-804 219.5,-804 219.5,-816 219.5,-816 219.5,-822 213.5,-828 207.5,-828"/>
<text text-anchor="middle" x="188.5" y="-807.5" font-family="sans" font-size="10.00">bwa_mem</text>
</g>
<!-- 6&#45;&gt;5 -->
<g id="edge11" class="edge">
<title>6&#45;&gt;5</title>
<path fill="none" stroke="grey" stroke-width="2" d="M188.5,-791.34C188.5,-784.75 188.5,-777.08 188.5,-769.67"/>
<polygon fill="grey" stroke="grey" stroke-width="2" points="192,-769.9 188.5,-759.9 185,-769.9 192,-769.9"/>
</g>
<!-- 7&#45;&gt;4 -->
<g id="edge10" class="edge">
<title>7&#45;&gt;4</title>
<path fill="none" stroke="grey" stroke-width="2" d="M143.2,-215.15C129.89,-206.76 113.81,-196.62 99.38,-187.52"/>
<polygon fill="grey" stroke="grey" stroke-width="2" points="101.07,-184.19 90.75,-181.81 97.34,-190.11 101.07,-184.19"/>
</g>
<!-- 7&#45;&gt;9 -->
<g id="edge15" class="edge">
<title>7&#45;&gt;9</title>
<path fill="none" stroke="grey" stroke-width="2" d="M183.61,-215.34C188.58,-208.1 194.45,-199.53 199.99,-191.45"/>
<polygon fill="grey" stroke="grey" stroke-width="2" points="203.46,-193.13 206.22,-182.9 197.68,-189.17 203.46,-193.13"/>
</g>
<!-- 8 -->
<g id="node9" class="node">
<title>8</title>
<path fill="none" stroke="#5673d8" stroke-width="2" d="M287,-108C287,-108 152,-108 152,-108 146,-108 140,-102 140,-96 140,-96 140,-84 140,-84 140,-78 146,-72 152,-72 152,-72 287,-72 287,-72 293,-72 299,-78 299,-84 299,-84 299,-96 299,-96 299,-102 293,-108 287,-108"/>
<text text-anchor="middle" x="219.5" y="-87.5" font-family="sans" font-size="10.00">picard_mark_duplicates_non_chr</text>
</g>
<!-- 8&#45;&gt;2 -->
<g id="edge6" class="edge">
<title>8&#45;&gt;2</title>
<path fill="none" stroke="grey" stroke-width="2" d="M219.5,-71.34C219.5,-64.75 219.5,-57.08 219.5,-49.67"/>
<polygon fill="grey" stroke="grey" stroke-width="2" points="223,-49.9 219.5,-39.9 216,-49.9 223,-49.9"/>
</g>
<!-- 9&#45;&gt;8 -->
<g id="edge13" class="edge">
<title>9&#45;&gt;8</title>
<path fill="none" stroke="grey" stroke-width="2" d="M219.5,-143.34C219.5,-136.75 219.5,-129.08 219.5,-121.67"/>
<polygon fill="grey" stroke="grey" stroke-width="2" points="223,-121.9 219.5,-111.9 216,-121.9 223,-121.9"/>
</g>
<!-- 10 -->
<g id="node11" class="node">
<title>10</title>
<path fill="none" stroke="#56d89a" stroke-width="2" d="M343,-396C343,-396 190,-396 190,-396 184,-396 178,-390 178,-384 178,-384 178,-372 178,-372 178,-366 184,-360 190,-360 190,-360 343,-360 343,-360 349,-360 355,-366 355,-372 355,-372 355,-384 355,-384 355,-390 349,-396 343,-396"/>
<text text-anchor="middle" x="266.5" y="-375.5" font-family="sans" font-size="10.00">bwa_mem_realign_consensus_reads</text>
</g>
<!-- 10&#45;&gt;1 -->
<g id="edge5" class="edge">
<title>10&#45;&gt;1</title>
<path fill="none" stroke="grey" stroke-width="2" d="M260.44,-359.34C258.13,-352.59 255.42,-344.69 252.82,-337.11"/>
<polygon fill="grey" stroke="grey" stroke-width="2" points="255.19,-335.23 248.64,-326.9 248.57,-337.5 255.19,-335.23"/>
</g>
<!-- 11 -->
<g id="node12" class="node">
<title>11</title>
<path fill="none" stroke="#d8ac56" stroke-width="2" d="M351,-468C351,-468 190,-468 190,-468 184,-468 178,-462 178,-456 178,-456 178,-444 178,-444 178,-438 184,-432 190,-432 190,-432 351,-432 351,-432 357,-432 363,-438 363,-444 363,-444 363,-456 363,-456 363,-462 357,-468 351,-468"/>
<text text-anchor="middle" x="270.5" y="-447.5" font-family="sans" font-size="10.00">fgbio_call_and_filter_consensus_reads</text>
</g>
<!-- 11&#45;&gt;10 -->
<g id="edge16" class="edge">
<title>11&#45;&gt;10</title>
<path fill="none" stroke="grey" stroke-width="2" d="M269.49,-431.34C269.11,-424.75 268.68,-417.08 268.25,-409.67"/>
<polygon fill="grey" stroke="grey" stroke-width="2" points="271.59,-409.69 267.52,-399.9 264.6,-410.09 271.59,-409.69"/>
</g>
<!-- 15 -->
<g id="node16" class="node">
<title>15</title>
<path fill="none" stroke="#56c1d8" stroke-width="2" d="M413,-324C413,-324 354,-324 354,-324 348,-324 342,-318 342,-312 342,-312 342,-300 342,-300 342,-294 348,-288 354,-288 354,-288 413,-288 413,-288 419,-288 425,-294 425,-300 425,-300 425,-312 425,-312 425,-318 419,-324 413,-324"/>
<text text-anchor="middle" x="383.5" y="-303.5" font-family="sans" font-size="10.00">samtools_fastq</text>
</g>
<!-- 11&#45;&gt;15 -->
<g id="edge21" class="edge">
<title>11&#45;&gt;15</title>
<path fill="none" stroke="grey" stroke-width="2" d="M319.83,-431.01C336.3,-422.71 353.29,-411.25 364.5,-396 376.86,-379.18 381.53,-356.01 383.14,-337.53"/>
<polygon fill="grey" stroke="grey" stroke-width="2" points="386.79,-337.96 383.86,-327.78 379.8,-337.57 386.79,-337.96"/>
</g>
<!-- 12 -->
<g id="node13" class="node">
<title>12</title>
<path fill="none" stroke="#d85656" stroke-width="2" d="M322,-540C322,-540 213,-540 213,-540 207,-540 201,-534 201,-528 201,-528 201,-516 201,-516 201,-510 207,-504 213,-504 213,-504 322,-504 322,-504 328,-504 334,-510 334,-516 334,-516 334,-528 334,-528 334,-534 328,-540 322,-540"/>
<text text-anchor="middle" x="267.5" y="-519.5" font-family="sans" font-size="10.00">fgbio_group_reads_by_umi</text>
</g>
<!-- 12&#45;&gt;11 -->
<g id="edge17" class="edge">
<title>12&#45;&gt;11</title>
<path fill="none" stroke="grey" stroke-width="2" d="M268.26,-503.34C268.54,-496.75 268.87,-489.08 269.19,-481.67"/>
<polygon fill="grey" stroke="grey" stroke-width="2" points="272.8,-482.04 269.73,-471.9 265.81,-481.74 272.8,-482.04"/>
</g>
<!-- 13 -->
<g id="node14" class="node">
<title>13</title>
<path fill="none" stroke="#97d856" stroke-width="2" d="M334,-612C334,-612 195,-612 195,-612 189,-612 183,-606 183,-600 183,-600 183,-588 183,-588 183,-582 189,-576 195,-576 195,-576 334,-576 334,-576 340,-576 346,-582 346,-588 346,-588 346,-600 346,-600 346,-606 340,-612 334,-612"/>
<text text-anchor="middle" x="264.5" y="-591.5" font-family="sans" font-size="10.00">fgbio_copy_umi_from_read_name</text>
</g>
<!-- 13&#45;&gt;12 -->
<g id="edge18" class="edge">
<title>13&#45;&gt;12</title>
<path fill="none" stroke="grey" stroke-width="2" d="M265.26,-575.34C265.54,-568.75 265.87,-561.08 266.19,-553.67"/>
<polygon fill="grey" stroke="grey" stroke-width="2" points="269.8,-554.04 266.73,-543.9 262.81,-553.74 269.8,-554.04"/>
</g>
<!-- 14&#45;&gt;13 -->
<g id="edge19" class="edge">
<title>14&#45;&gt;13</title>
<path fill="none" stroke="grey" stroke-width="2" d="M250.29,-647.34C252.1,-640.67 254.22,-632.89 256.25,-625.39"/>
<polygon fill="grey" stroke="grey" stroke-width="2" points="260.4,-625.47 259.64,-614.9 253.64,-623.64 260.4,-625.47"/>
</g>
<!-- 15&#45;&gt;0 -->
<g id="edge2" class="edge">
<title>15&#45;&gt;0</title>
<path fill="none" stroke="grey" stroke-width="2" d="M383.5,-287.34C383.5,-280.75 383.5,-273.08 383.5,-265.67"/>
<polygon fill="grey" stroke="grey" stroke-width="2" points="387,-265.9 383.5,-255.9 380,-265.9 387,-265.9"/>
</g>
</g>
</svg>
