<?xml version="1.0" encoding="UTF-8" standalone="no"?>
<!DOCTYPE svg PUBLIC "-//W3C//DTD SVG 1.1//EN"
 "http://www.w3.org/Graphics/SVG/1.1/DTD/svg11.dtd">
<!-- Generated by graphviz version 2.43.0 (0)
 -->
<!-- Title: snakemake_dag Pages: 1 -->
<svg width="254pt" height="476pt"
 viewBox="0.00 0.00 253.50 476.00" xmlns="http://www.w3.org/2000/svg" xmlns:xlink="http://www.w3.org/1999/xlink">
<g id="graph0" class="graph" transform="scale(1 1) rotate(0) translate(4 472)">
<title>snakemake_dag</title>
<polygon fill="white" stroke="transparent" points="-4,4 -4,-472 249.5,-472 249.5,4 -4,4"/>
<!-- 0 -->
<g id="node1" class="node">
<title>0</title>
<path fill="none" stroke="#d6d856" stroke-width="2" d="M42,-252C42,-252 12,-252 12,-252 6,-252 0,-246 0,-240 0,-240 0,-228 0,-228 0,-222 6,-216 12,-216 12,-216 42,-216 42,-216 48,-216 54,-222 54,-228 54,-228 54,-240 54,-240 54,-246 48,-252 42,-252"/>
<text text-anchor="middle" x="27" y="-231.5" font-family="sans" font-size="10.00">all</text>
</g>
<!-- 1 -->
<g id="node2" class="node">
<title>1</title>
<path fill="none" stroke="#d85656" stroke-width="2" d="M150,-324C150,-324 88,-324 88,-324 82,-324 76,-318 76,-312 76,-312 76,-300 76,-300 76,-294 82,-288 88,-288 88,-288 150,-288 150,-288 156,-288 162,-294 162,-300 162,-300 162,-312 162,-312 162,-318 156,-324 150,-324"/>
<text text-anchor="middle" x="119" y="-303.5" font-family="sans" font-size="10.00">samtools_sort</text>
</g>
<!-- 1&#45;&gt;0 -->
<g id="edge1" class="edge">
<title>1&#45;&gt;0</title>
<path fill="none" stroke="grey" stroke-width="2" d="M96.26,-287.7C84.56,-278.8 70.14,-267.82 57.49,-258.2"/>
<polygon fill="grey" stroke="grey" stroke-width="2" points="59.56,-255.37 49.48,-252.1 55.32,-260.94 59.56,-255.37"/>
</g>
<!-- 4 -->
<g id="node5" class="node">
<title>4</title>
<path fill="none" stroke="#56d89a" stroke-width="2" d="M192,-180C192,-180 76,-180 76,-180 70,-180 64,-174 64,-168 64,-168 64,-156 64,-156 64,-150 70,-144 76,-144 76,-144 192,-144 192,-144 198,-144 204,-150 204,-156 204,-156 204,-168 204,-168 204,-174 198,-180 192,-180"/>
<text text-anchor="middle" x="134" y="-159.5" font-family="sans" font-size="10.00">samotools_extract_reads</text>
</g>
<!-- 1&#45;&gt;4 -->
<g id="edge6" class="edge">
<title>1&#45;&gt;4</title>
<path fill="none" stroke="grey" stroke-width="2" d="M110.66,-287.75C103.05,-269.67 93.98,-240.55 101,-216 103.71,-206.51 108.67,-197.06 113.93,-188.83"/>
<polygon fill="grey" stroke="grey" stroke-width="2" points="116.92,-190.67 119.67,-180.43 111.14,-186.72 116.92,-190.67"/>
</g>
<!-- 7 -->
<g id="node8" class="node">
<title>7</title>
<path fill="none" stroke="#d89556" stroke-width="2" d="M192,-252C192,-252 122,-252 122,-252 116,-252 110,-246 110,-240 110,-240 110,-228 110,-228 110,-222 116,-216 122,-216 122,-216 192,-216 192,-216 198,-216 204,-222 204,-228 204,-228 204,-240 204,-240 204,-246 198,-252 192,-252"/>
<text text-anchor="middle" x="157" y="-231.5" font-family="sans" font-size="10.00">samtools_index</text>
</g>
<!-- 1&#45;&gt;7 -->
<g id="edge9" class="edge">
<title>1&#45;&gt;7</title>
<path fill="none" stroke="grey" stroke-width="2" d="M128.39,-287.7C132.76,-279.64 138.06,-269.89 142.9,-260.98"/>
<polygon fill="grey" stroke="grey" stroke-width="2" points="146.02,-262.56 147.71,-252.1 139.87,-259.22 146.02,-262.56"/>
</g>
<!-- 2 -->
<g id="node3" class="node">
<title>2</title>
<path fill="none" stroke="#97d856" stroke-width="2" d="M233.5,-36C233.5,-36 132.5,-36 132.5,-36 126.5,-36 120.5,-30 120.5,-24 120.5,-24 120.5,-12 120.5,-12 120.5,-6 126.5,0 132.5,0 132.5,0 233.5,0 233.5,0 239.5,0 245.5,-6 245.5,-12 245.5,-12 245.5,-24 245.5,-24 245.5,-30 239.5,-36 233.5,-36"/>
<text text-anchor="middle" x="183" y="-15.5" font-family="sans" font-size="10.00">samtools_merge_bam</text>
</g>
<!-- 2&#45;&gt;1 -->
<g id="edge2" class="edge">
<title>2&#45;&gt;1</title>
<path fill="none" stroke="grey" stroke-width="2" d="M195.24,-36.23C201.56,-46.18 208.64,-59.22 212,-72 232.36,-149.37 253.35,-182.92 213,-252 203.76,-267.82 187.86,-279.29 171.73,-287.42"/>
<polygon fill="grey" stroke="grey" stroke-width="2" points="169.85,-284.44 162.26,-291.83 172.81,-290.78 169.85,-284.44"/>
</g>
<!-- 3 -->
<g id="node4" class="node">
<title>3</title>
<path fill="none" stroke="#59d856" stroke-width="2" d="M190.5,-108C190.5,-108 81.5,-108 81.5,-108 75.5,-108 69.5,-102 69.5,-96 69.5,-96 69.5,-84 69.5,-84 69.5,-78 75.5,-72 81.5,-72 81.5,-72 190.5,-72 190.5,-72 196.5,-72 202.5,-78 202.5,-84 202.5,-84 202.5,-96 202.5,-96 202.5,-102 196.5,-108 190.5,-108"/>
<text text-anchor="middle" x="136" y="-87.5" font-family="sans" font-size="10.00">picard_mark_duplicates</text>
</g>
<!-- 3&#45;&gt;2 -->
<g id="edge4" class="edge">
<title>3&#45;&gt;2</title>
<path fill="none" stroke="grey" stroke-width="2" d="M147.62,-71.7C153.14,-63.47 159.85,-53.48 165.93,-44.42"/>
<polygon fill="grey" stroke="grey" stroke-width="2" points="168.85,-46.36 171.52,-36.1 163.04,-42.46 168.85,-46.36"/>
</g>
<!-- 4&#45;&gt;3 -->
<g id="edge5" class="edge">
<title>4&#45;&gt;3</title>
<path fill="none" stroke="grey" stroke-width="2" d="M134.49,-143.7C134.71,-135.98 134.98,-126.71 135.23,-118.11"/>
<polygon fill="grey" stroke="grey" stroke-width="2" points="138.72,-118.2 135.51,-108.1 131.73,-118 138.72,-118.2"/>
</g>
<!-- 5 -->
<g id="node6" class="node">
<title>5</title>
<path fill="none" stroke="#56d8d8" stroke-width="2" d="M159,-396C159,-396 79,-396 79,-396 73,-396 67,-390 67,-384 67,-384 67,-372 67,-372 67,-366 73,-360 79,-360 79,-360 159,-360 159,-360 165,-360 171,-366 171,-372 171,-372 171,-384 171,-384 171,-390 165,-396 159,-396"/>
<text text-anchor="middle" x="119" y="-375.5" font-family="sans" font-size="10.00">bwa_mem_merge</text>
</g>
<!-- 5&#45;&gt;1 -->
<g id="edge3" class="edge">
<title>5&#45;&gt;1</title>
<path fill="none" stroke="grey" stroke-width="2" d="M119,-359.7C119,-351.98 119,-342.71 119,-334.11"/>
<polygon fill="grey" stroke="grey" stroke-width="2" points="122.5,-334.1 119,-324.1 115.5,-334.1 122.5,-334.1"/>
</g>
<!-- 6 -->
<g id="node7" class="node">
<title>6</title>
<path fill="none" stroke="#569ad8" stroke-width="2" d="M141,-468C141,-468 97,-468 97,-468 91,-468 85,-462 85,-456 85,-456 85,-444 85,-444 85,-438 91,-432 97,-432 97,-432 141,-432 141,-432 147,-432 153,-438 153,-444 153,-444 153,-456 153,-456 153,-462 147,-468 141,-468"/>
<text text-anchor="middle" x="119" y="-447.5" font-family="sans" font-size="10.00">bwa_mem</text>
</g>
<!-- 6&#45;&gt;5 -->
<g id="edge8" class="edge">
<title>6&#45;&gt;5</title>
<path fill="none" stroke="grey" stroke-width="2" d="M119,-431.7C119,-423.98 119,-414.71 119,-406.11"/>
<polygon fill="grey" stroke="grey" stroke-width="2" points="122.5,-406.1 119,-396.1 115.5,-406.1 122.5,-406.1"/>
</g>
<!-- 7&#45;&gt;4 -->
<g id="edge7" class="edge">
<title>7&#45;&gt;4</title>
<path fill="none" stroke="grey" stroke-width="2" d="M151.31,-215.7C148.75,-207.9 145.67,-198.51 142.82,-189.83"/>
<polygon fill="grey" stroke="grey" stroke-width="2" points="146.07,-188.51 139.62,-180.1 139.42,-190.7 146.07,-188.51"/>
</g>
</g>
</svg>
